<svg width="107" height="108" viewBox="0 0 107 108" fill="none" xmlns="http://www.w3.org/2000/svg">
<g filter="url(#filter0_d_2045_445)">
<circle cx="47" cy="50" r="40" fill="#F59256"/>
</g>
<path d="M46.9997 52.6663V41.9997V52.6663ZM46.9997 41.9997V31.333V41.9997ZM46.9997 41.9997H57.6663H46.9997ZM46.9997 41.9997H36.333H46.9997Z" fill="white"/>
<path d="M46.9997 52.6663V41.9997M46.9997 41.9997V31.333M46.9997 41.9997H57.6663M46.9997 41.9997H36.333" stroke="white" stroke-width="2" stroke-linecap="round"/>
<path d="M25.24 71L28.132 62.36H29.62L32.512 71H31.402L28.696 62.984H29.032L26.35 71H25.24ZM26.632 68.978V67.976H31.12V68.978H26.632ZM36.1301 71.18C35.5261 71.18 35.0081 71.03 34.5761 70.73C34.1441 70.426 33.8101 70.016 33.5741 69.5C33.3421 68.984 33.2261 68.402 33.2261 67.754C33.2261 67.106 33.3421 66.524 33.5741 66.008C33.8101 65.492 34.1441 65.086 34.5761 64.79C35.0081 64.49 35.5241 64.34 36.1241 64.34C36.7361 64.34 37.2501 64.488 37.6661 64.784C38.0821 65.08 38.3961 65.486 38.6081 66.002C38.8241 66.518 38.9321 67.102 38.9321 67.754C38.9321 68.398 38.8241 68.98 38.6081 69.5C38.3961 70.016 38.0821 70.426 37.6661 70.73C37.2501 71.03 36.7381 71.18 36.1301 71.18ZM36.2621 70.202C36.6981 70.202 37.0561 70.098 37.3361 69.89C37.6161 69.678 37.8221 69.388 37.9541 69.02C38.0901 68.648 38.1581 68.226 38.1581 67.754C38.1581 67.274 38.0901 66.852 37.9541 66.488C37.8221 66.12 37.6181 65.834 37.3421 65.63C37.0661 65.422 36.7161 65.318 36.2921 65.318C35.8521 65.318 35.4881 65.426 35.2001 65.642C34.9161 65.858 34.7041 66.15 34.5641 66.518C34.4281 66.886 34.3601 67.298 34.3601 67.754C34.3601 68.214 34.4301 68.63 34.5701 69.002C34.7101 69.37 34.9201 69.662 35.2001 69.878C35.4841 70.094 35.8381 70.202 36.2621 70.202ZM38.1581 71V66.23H38.0381V62.36H39.1121V71H38.1581ZM43.3371 71.18C42.7331 71.18 42.2151 71.03 41.7831 70.73C41.3511 70.426 41.0171 70.016 40.7811 69.5C40.5491 68.984 40.4331 68.402 40.4331 67.754C40.4331 67.106 40.5491 66.524 40.7811 66.008C41.0171 65.492 41.3511 65.086 41.7831 64.79C42.2151 64.49 42.7311 64.34 43.3311 64.34C43.9431 64.34 44.4571 64.488 44.8731 64.784C45.2891 65.08 45.6031 65.486 45.8151 66.002C46.0311 66.518 46.1391 67.102 46.1391 67.754C46.1391 68.398 46.0311 68.98 45.8151 69.5C45.6031 70.016 45.2891 70.426 44.8731 70.73C44.4571 71.03 43.9451 71.18 43.3371 71.18ZM43.4691 70.202C43.9051 70.202 44.2631 70.098 44.5431 69.89C44.8231 69.678 45.0291 69.388 45.1611 69.02C45.2971 68.648 45.3651 68.226 45.3651 67.754C45.3651 67.274 45.2971 66.852 45.1611 66.488C45.0291 66.12 44.8251 65.834 44.5491 65.63C44.2731 65.422 43.9231 65.318 43.4991 65.318C43.0591 65.318 42.6951 65.426 42.4071 65.642C42.1231 65.858 41.9111 66.15 41.7711 66.518C41.6351 66.886 41.5671 67.298 41.5671 67.754C41.5671 68.214 41.6371 68.63 41.7771 69.002C41.9171 69.37 42.1271 69.662 42.4071 69.878C42.6911 70.094 43.0451 70.202 43.4691 70.202ZM45.3651 71V66.23H45.2451V62.36H46.3191V71H45.3651ZM53.3785 71.18C52.7705 71.18 52.2585 71.03 51.8425 70.73C51.4265 70.426 51.1105 70.016 50.8945 69.5C50.6825 68.98 50.5765 68.398 50.5765 67.754C50.5765 67.102 50.6825 66.518 50.8945 66.002C51.1105 65.486 51.4265 65.08 51.8425 64.784C52.2625 64.488 52.7765 64.34 53.3845 64.34C53.9845 64.34 54.5005 64.49 54.9325 64.79C55.3685 65.086 55.7025 65.492 55.9345 66.008C56.1665 66.524 56.2825 67.106 56.2825 67.754C56.2825 68.402 56.1665 68.984 55.9345 69.5C55.7025 70.016 55.3685 70.426 54.9325 70.73C54.5005 71.03 53.9825 71.18 53.3785 71.18ZM50.3965 73.88V64.52H51.3505V69.29H51.4705V73.88H50.3965ZM53.2465 70.202C53.6745 70.202 54.0285 70.094 54.3085 69.878C54.5885 69.662 54.7985 69.37 54.9385 69.002C55.0785 68.63 55.1485 68.214 55.1485 67.754C55.1485 67.298 55.0785 66.886 54.9385 66.518C54.8025 66.15 54.5905 65.858 54.3025 65.642C54.0185 65.426 53.6565 65.318 53.2165 65.318C52.7965 65.318 52.4485 65.422 52.1725 65.63C51.8965 65.834 51.6905 66.12 51.5545 66.488C51.4185 66.852 51.3505 67.274 51.3505 67.754C51.3505 68.226 51.4165 68.648 51.5485 69.02C51.6845 69.388 51.8925 69.678 52.1725 69.89C52.4525 70.098 52.8105 70.202 53.2465 70.202ZM60.4058 71.18C59.7698 71.18 59.2138 71.04 58.7378 70.76C58.2658 70.476 57.8978 70.082 57.6338 69.578C57.3698 69.07 57.2378 68.478 57.2378 67.802C57.2378 67.094 57.3678 66.482 57.6278 65.966C57.8878 65.446 58.2498 65.046 58.7138 64.766C59.1818 64.482 59.7298 64.34 60.3578 64.34C61.0098 64.34 61.5638 64.49 62.0198 64.79C62.4798 65.09 62.8238 65.518 63.0518 66.074C63.2838 66.63 63.3838 67.292 63.3518 68.06H62.2718V67.676C62.2598 66.88 62.0978 66.286 61.7858 65.894C61.4738 65.498 61.0098 65.3 60.3938 65.3C59.7338 65.3 59.2318 65.512 58.8878 65.936C58.5438 66.36 58.3718 66.968 58.3718 67.76C58.3718 68.524 58.5438 69.116 58.8878 69.536C59.2318 69.956 59.7218 70.166 60.3578 70.166C60.7858 70.166 61.1578 70.068 61.4738 69.872C61.7898 69.676 62.0378 69.394 62.2178 69.026L63.2438 69.38C62.9918 69.952 62.6118 70.396 62.1038 70.712C61.5998 71.024 61.0338 71.18 60.4058 71.18ZM58.0118 68.06V67.202H62.7998V68.06H58.0118ZM68.3057 71C67.9217 71.076 67.5417 71.106 67.1657 71.09C66.7937 71.078 66.4617 71.004 66.1697 70.868C65.8777 70.728 65.6557 70.512 65.5037 70.22C65.3757 69.964 65.3057 69.706 65.2937 69.446C65.2857 69.182 65.2817 68.884 65.2817 68.552V62.72H66.3497V68.504C66.3497 68.768 66.3517 68.994 66.3557 69.182C66.3637 69.37 66.4057 69.532 66.4817 69.668C66.6257 69.924 66.8537 70.074 67.1657 70.118C67.4817 70.162 67.8617 70.15 68.3057 70.082V71ZM63.9677 65.402V64.52H68.3057V65.402H63.9677Z" fill="white"/>
<defs>
<filter id="filter0_d_2045_445" x="0" y="0" width="108" height="108" filterUnits="userSpaceOnUse" color-interpolation-filters="sRGB">
<feFlood flood-opacity="0" result="BackgroundImageFix"/>
<feColorMatrix in="SourceAlpha" type="matrix" values="0 0 0 0 0 0 0 0 0 0 0 0 0 0 0 0 0 0 127 0" result="hardAlpha"/>
<feOffset dx="7" dy="4"/>
<feGaussianBlur stdDeviation="7"/>
<feComposite in2="hardAlpha" operator="out"/>
<feColorMatrix type="matrix" values="0 0 0 0 0.191667 0 0 0 0 0.0814764 0 0 0 0 0.0146945 0 0 0 0.07 0"/>
<feBlend mode="normal" in2="BackgroundImageFix" result="effect1_dropShadow_2045_445"/>
<feBlend mode="normal" in="SourceGraphic" in2="effect1_dropShadow_2045_445" result="shape"/>
</filter>
</defs>
</svg>
